<?xml version="1.0" encoding="UTF-8"?>
<svg width="101px" height="100px" viewBox="0 0 101 100" version="1.1" xmlns="http://www.w3.org/2000/svg" xmlns:xlink="http://www.w3.org/1999/xlink">
    <title>default-image-player-profile</title>
    <defs>
        <circle id="path-1" cx="40" cy="40" r="40"></circle>
        <circle id="path-3" cx="50" cy="50" r="50"></circle>
        <mask id="mask-4" maskContentUnits="userSpaceOnUse" maskUnits="objectBoundingBox" x="0" y="0" width="100" height="100" fill="white">
            <use xlink:href="#path-3"></use>
        </mask>
    </defs>
    <g id="Coach" stroke="none" stroke-width="1" fill="none" fill-rule="evenodd">
        <g id="PitchAI---Player-Profile" transform="translate(-130.000000, -82.000000)">
            <g id="default-image-player-profile" transform="translate(130.500000, 82.000000)">
                <g id="Combined-Shape" transform="translate(10.000000, 10.000000)">
                    <mask id="mask-2" fill="white">
                        <use xlink:href="#path-1"></use>
                    </mask>
                    <use id="Mask" fill="#676E72" xlink:href="#path-1"></use>
                    <path d="M39.7359715,50.198655 C55.8300958,50.198655 68.8773135,59.2404581 68.8800988,72.7831966 C68.8800988,83.6269426 10.5946965,83.6269426 10.5946965,72.7831966 C10.5946965,59.2404581 23.6418472,50.198655 39.7359715,50.198655 Z M39.7361141,19 C46.8613829,19 52.6356581,25.5597283 52.6356581,33.6515716 C52.6356581,41.7435575 46.8613829,48.3031432 39.7361141,48.3031432 C32.6108452,48.3031432 26.8365701,41.7434149 26.8365701,33.6515716 C26.8365701,25.5597283 32.6108452,19 39.7361141,19 Z" fill="#3A3F43" fill-rule="nonzero" mask="url(#mask-2)"></path>
                </g>
                <use id="Oval" stroke="#6BA4FF" mask="url(#mask-4)" stroke-width="2" stroke-dasharray="6,9" xlink:href="#path-3"></use>
            </g>
        </g>
    </g>
</svg>