<?xml version="1.0" encoding="UTF-8"?>
<svg width="20px" height="21px" viewBox="0 0 20 21" version="1.1" xmlns="http://www.w3.org/2000/svg" xmlns:xlink="http://www.w3.org/1999/xlink">
    <title>Shape</title>
    <g id="Phase-3---Coach" stroke="none" stroke-width="1" fill="none" fill-rule="evenodd">
        <g id="PitchAI---Player-Profile---Edit-Details" transform="translate(-32.000000, -504.000000)" fill="#6BA4FF">
            <g id="Group" transform="translate(32.000000, 504.000000)">
                <path d="M10,5.5 C7.24,5.5 5,7.74 5,10.5 C5,13.26 7.24,15.5 10,15.5 C12.76,15.5 15,13.26 15,10.5 C15,7.74 12.76,5.5 10,5.5 L10,5.5 Z M10,0.5 C4.48,0.5 0,4.98 0,10.5 C0,16.02 4.48,20.5 10,20.5 C15.52,20.5 20,16.02 20,10.5 C20,4.98 15.52,0.5 10,0.5 L10,0.5 Z M10,18.5 C5.58,18.5 2,14.92 2,10.5 C2,6.08 5.58,2.5 10,2.5 C14.42,2.5 18,6.08 18,10.5 C18,14.92 14.42,18.5 10,18.5 L10,18.5 Z" id="Shape"></path>
            </g>
        </g>
    </g>
</svg>