<?xml version="1.0" encoding="UTF-8"?>
<svg width="20px" height="21px" viewBox="0 0 20 21" version="1.1" xmlns="http://www.w3.org/2000/svg" xmlns:xlink="http://www.w3.org/1999/xlink">
    <title>Shape</title>
    <g id="Phase-3---Coach" stroke="none" stroke-width="1" fill="none" fill-rule="evenodd">
        <g id="PitchAI---Player-Profile---Edit-Details" transform="translate(-137.000000, -504.000000)" fill="#FFFFFF">
            <g id="Group" transform="translate(32.000000, 504.000000)">
                <path d="M115,0.5 C109.48,0.5 105,4.98 105,10.5 C105,16.02 109.48,20.5 115,20.5 C120.52,20.5 125,16.02 125,10.5 C125,4.98 120.52,0.5 115,0.5 L115,0.5 Z M115,18.5 C110.58,18.5 107,14.92 107,10.5 C107,6.08 110.58,2.5 115,2.5 C119.42,2.5 123,6.08 123,10.5 C123,14.92 119.42,18.5 115,18.5 L115,18.5 Z" id="Shape"></path>
            </g>
        </g>
    </g>
</svg>