<?xml version="1.0" encoding="UTF-8"?>
<svg width="21px" height="20px" viewBox="0 0 21 20" version="1.1" xmlns="http://www.w3.org/2000/svg" xmlns:xlink="http://www.w3.org/1999/xlink">
    <title>Shape</title>
    <g id="Phase-3---Coach" stroke="none" stroke-width="1" fill="none" fill-rule="evenodd">
        <g id="PitchAI---Compare-Report-+-Scroll" transform="translate(-300.000000, -383.000000)" fill="#FFFFFF">
            <g id="Group-5" transform="translate(32.000000, 207.000000)">
                <g id="Group" transform="translate(0.000000, 35.000000)">
                    <g id="Group-9-Copy" transform="translate(0.125000, 133.000000)">
                        <path d="M277.125,23 L279.125,23 L279.125,17 L277.125,17 L277.125,23 L277.125,23 Z M278.125,8 C272.605,8 268.125,12.48 268.125,18 C268.125,23.52 272.605,28 278.125,28 C283.645,28 288.125,23.52 288.125,18 C288.125,12.48 283.645,8 278.125,8 L278.125,8 Z M278.125,26 C273.715,26 270.125,22.41 270.125,18 C270.125,13.59 273.715,10 278.125,10 C282.535,10 286.125,13.59 286.125,18 C286.125,22.41 282.535,26 278.125,26 L278.125,26 Z M277.125,15 L279.125,15 L279.125,13 L277.125,13 L277.125,15 L277.125,15 Z" id="Shape"></path>
                    </g>
                </g>
            </g>
        </g>
    </g>
</svg>