<?xml version="1.0" encoding="UTF-8"?>
<svg width="18px" height="17px" viewBox="0 0 18 17" version="1.1" xmlns="http://www.w3.org/2000/svg" xmlns:xlink="http://www.w3.org/1999/xlink">
    <title>svgexport-31</title>
    <g id="Phase-3---Coach" stroke="none" stroke-width="1" fill="none" fill-rule="evenodd">
        <g id="PitchAI---Register-With" transform="translate(-56.000000, -104.000000)" fill-rule="nonzero">
            <g id="Group-2" transform="translate(32.000000, 90.000000)">
                <g id="svgexport-31" transform="translate(24.500000, 14.000000)">
                    <path d="M16.66,8.7 C16.66,8.09 16.61,7.51 16.51,6.96 L8.5,6.96 L8.5,10.24 L13.08,10.24 C12.8890136,11.2932528 12.2745674,12.2221509 11.38,12.81 L11.38,14.94 L14.12,14.94 C15.8139278,13.3147716 16.7373422,11.0462261 16.66,8.7 L16.66,8.7 Z" id="Path" fill="#4285F4"></path>
                    <path d="M8.5,17 C10.571062,17.0586515 12.5858637,16.3214416 14.13,14.94 L11.38,12.81 C10.5214442,13.3583176 9.51835343,13.636954 8.5,13.61 C6.32622648,13.5869659 4.41009082,12.1780426 3.74,10.11 L0.9,10.11 L0.9,12.31 C2.34183064,15.1854429 5.2833174,17.0006499 8.5,17 L8.5,17 Z" id="Path" fill="#34A853"></path>
                    <path d="M3.74,10.12 C3.39077269,9.07165215 3.39077269,7.93834785 3.74,6.89 L3.74,4.69 L0.9,4.69 C0.307290938,5.87254725 -0.000901769265,7.17722972 -1.97322982e-06,8.5 C-1.97322982e-06,9.87 0.33,11.17 0.9,12.32 L3.74,10.12 L3.74,10.12 Z" id="Path" fill="#FBBC05"></path>
                    <path d="M8.5,3.38 C9.7080822,3.36007855 10.8754989,3.81626907 11.75,4.65 L14.19,2.21 C12.6501005,0.765854502 10.6109626,-0.0261480847 8.5,-2.16840434e-19 C5.28553926,-0.00254830686 2.34461592,1.80844133 0.9,4.68 L3.74,6.88 C4.41009082,4.8119574 6.32622648,3.40303413 8.5,3.38 Z" id="Path" fill="#EA4335"></path>
                </g>
            </g>
        </g>
    </g>
</svg>