<?xml version="1.0" encoding="UTF-8"?>
<svg width="24px" height="24px" viewBox="0 0 24 24" version="1.1" xmlns="http://www.w3.org/2000/svg" xmlns:xlink="http://www.w3.org/1999/xlink">
    <title>Group 3</title>
    <g id="Phase-3---Coach" stroke="none" stroke-width="1" fill="none" fill-rule="evenodd">
        <g id="PitchAI---New-Pitch---Analyzing" transform="translate(-31.000000, -546.000000)">
            <g id="Group-3" transform="translate(32.000000, 546.000000)">
                <path d="M11.4301746,-3.97903932e-13 C13.0032729,-3.97903932e-13 14.2776322,1.27435932 14.2776322,2.84587119 L14.2776322,2.95233356 C14.4458246,3.01509722 14.6111781,3.08315528 14.773514,3.1562893 C14.4713024,3.60377856 14.2480263,4.10790063 14.1225252,4.64949032 C13.8396243,4.51953393 13.5440312,4.41007035 13.2383533,4.32196068 L12.6504346,4.15193898 L12.6504346,2.84581017 C12.6504346,2.17210169 12.1038041,1.62705763 11.4300956,1.62705763 C10.7579736,1.62705763 10.2097567,2.17368814 10.2097567,2.84581017 L10.2097567,4.15193898 L9.62191937,4.32196068 C6.86025158,5.11802847 4.92158039,7.65564203 4.92158039,10.576198 L4.92158039,15.4575539 C4.92158039,16.3553166 4.19222446,17.0846725 3.29604819,17.0846725 C2.84635327,17.0846725 2.48090243,17.4501397 2.48090243,17.8982319 C2.48090243,18.3479268 2.84636954,18.7117912 3.29922107,18.7117912 L19.5610516,18.7117912 C20.0123329,18.7117912 20.3793702,18.3463241 20.3793702,17.8982319 C20.3793702,17.4501397 20.0123167,17.0846725 19.5642245,17.0846725 C18.6664617,17.0846725 17.9386923,16.3584895 17.9386923,15.4575539 L17.9386923,10.576198 C17.9386923,10.4264639 17.9335912,10.2777291 17.9235397,10.1301777 C18.1135691,10.1566456 18.3085151,10.1694244 18.5064457,10.1694244 C18.8650904,10.1694244 19.2139358,10.1274686 19.5483414,10.0481974 C19.560037,10.2222728 19.5657678,10.3986699 19.5657678,10.576198 L19.5657678,15.4575539 C20.9100525,15.4575539 22.0064457,16.5507742 22.0064457,17.8982319 C22.0064457,19.2456895 20.911639,20.3389098 19.5610085,20.3389098 L15.0864346,20.3389098 C14.9799723,22.2663539 13.3846312,23.7965369 11.430177,23.7965369 C9.47572276,23.7965369 7.88037361,22.2663539 7.77391937,20.3389098 L3.2993431,20.3389098 C1.94871259,20.3389098 0.853905815,19.2472759 0.853905815,17.8982319 C0.853905815,16.5507742 1.94712615,15.4575539 3.29617022,15.4575539 C3.29458134,15.4575539 3.29458134,10.576198 3.29458134,10.576198 C3.29458134,7.13764881 5.4444932,4.1234522 8.58271693,2.95233356 L8.58271693,2.84587119 C8.58271693,1.27435932 9.8586627,-3.97903932e-13 11.4301746,-3.97903932e-13 Z M13.4545973,20.3389098 L9.40583802,20.3389098 C9.50912344,21.3669641 10.3751126,22.1694183 11.4302177,22.1694183 C12.4853228,22.1694183 13.351316,21.3669641 13.4545973,20.3389098 Z" id="Combined-Shape" fill="#FFFFFF" fill-rule="nonzero"></path>
                <path d="M18.3603516,3.16942441 C16.9796397,3.16942441 15.8603516,4.28871253 15.8603516,5.66942441 C15.8603516,7.05013628 16.9796397,8.16942441 18.3603516,8.16942441 C19.7410634,8.16942441 20.8603516,7.05013628 20.8603516,5.66942441 C20.8603516,4.28871253 19.7410634,3.16942441 18.3603516,3.16942441 Z" id="Oval-Copy-2" fill="#FF6767" fill-rule="nonzero"></path>
                <path d="M4.36035156,1.62705763 C2.97298177,2.50171252 1.89941406,3.69270207 1.13964844,5.20002629 C0.379882813,6.70735051 2.5313085e-14,8.36381655 2.5313085e-14,10.1694244" id="Line-Copy-2" stroke="#FFFFFF" stroke-width="1.5" stroke-linecap="round"></path>
                <path d="M4.50644575,1.62705763 C3.11907596,2.50171252 2.04550825,3.69270207 1.28574262,5.20002629 C0.525976997,6.70735051 0.146094185,8.36381655 0.146094185,10.1694244" id="Line-Copy" stroke="#FFFFFF" stroke-width="1.5" stroke-linecap="round"></path>
            </g>
        </g>
    </g>
</svg>