<?xml version="1.0" encoding="UTF-8"?>
<svg width="18px" height="14px" viewBox="0 0 18 14" version="1.1" xmlns="http://www.w3.org/2000/svg" xmlns:xlink="http://www.w3.org/1999/xlink">
    <title>Path</title>
    <g id="Phase-3---Coach" stroke="none" stroke-width="1" fill="none" fill-rule="evenodd">
        <g id="PitchAI---Register-With" transform="translate(-56.000000, -183.000000)" fill="#55ACEE" fill-rule="nonzero">
            <g id="Group" transform="translate(32.000000, 167.000000)">
                <g id="svgexport-33" transform="translate(24.500000, 15.000000)">
                    <path d="M16.5,1.25 C15.83,1.66 15.1,1.95 14.32,2.12 C13.6820353,1.41559583 12.7817527,1.00555343 11.8315812,0.986625715 C10.8814097,0.967697996 9.96551133,1.34156149 9.3,2.02 C8.64576505,2.6754001 8.27883411,3.56394855 8.28,4.49 C8.28,4.76 8.31,5.03 8.35,5.29 C5.54820852,5.13691074 2.94264792,3.80324165 1.18,1.62 C0.879156415,2.15275113 0.707875219,2.74880969 0.68,3.36 C0.695071888,4.52888351 1.27675489,5.61767478 2.24,6.28 C1.69529393,6.26121783 1.16333312,6.1102096 0.69,5.84 L0.69,5.9 C0.69,7.57 1.89,8.98 3.49,9.32 C3.19,9.38 2.89,9.42 2.55,9.44 L1.93,9.38 C2.38410024,10.7960568 3.68343739,11.7705597 5.17,11.81 C3.91551603,12.7653448 2.38672578,13.2913047 0.81,13.31 L0,13.24 C1.60143402,14.2603026 3.46115669,14.8015652 5.36,14.8000034 C11.76,14.8000034 15.27,9.48 15.26,4.9 L15.26,4.4 C15.95,3.92 16.54,3.3 17,2.6 C16.37,2.89 15.7,3.08 15,3.15 C15.7265762,2.72007203 16.2627315,2.03021888 16.5,1.22" id="Path"></path>
                </g>
            </g>
        </g>
    </g>
</svg>