<?xml version="1.0" encoding="UTF-8"?>
<svg width="19px" height="20px" viewBox="0 0 19 20" version="1.1" xmlns="http://www.w3.org/2000/svg" xmlns:xlink="http://www.w3.org/1999/xlink">
    <title>Shape Copy</title>
    <g id="Symbols" stroke="none" stroke-width="1" fill="none" fill-rule="evenodd">
        <g id="Menu/Player---Overview" transform="translate(-291.000000, -10.000000)" fill="#FFFFFF" fill-rule="nonzero">
            <path d="M300.75,10.75 C305.848271,10.75 310,14.9017288 310,20 C310,25.0982712 305.848271,29.25 300.75,29.25 C295.651729,29.25 291.5,25.0982712 291.5,20 C291.5,14.9017288 295.651729,10.75 300.75,10.75 Z M300.75004,12.050264 C298.858769,12.050264 297.062273,12.713935 295.607998,13.8965225 L295.544,13.95 L295.586829,13.9980569 C295.792318,14.2421299 295.981536,14.4920706 296.162345,14.7575468 L296.211,14.831 L296.350742,14.7549743 C296.629058,14.5686103 297.009507,14.6404569 297.189671,14.8849934 L297.23741,14.9634496 C297.423774,15.2417658 297.351927,15.6222154 297.094071,15.8105181 L297.011206,15.8609502 L296.863,15.942 L296.963442,16.1518311 C297.031253,16.3002853 297.095991,16.4551343 297.159288,16.6193282 L297.271,16.923 L297.443503,16.8808973 C297.764937,16.7931271 298.089135,16.9488039 298.217944,17.2434396 L298.250527,17.3358946 C298.338297,17.6573295 298.18262,17.9815266 297.884063,18.1113612 L297.79031,18.1442836 L297.618,18.187 L297.630341,18.2543693 C297.681174,18.5453917 297.71906,18.8115331 297.744622,19.0678894 L297.767,19.331 L297.929676,19.331428 C298.255479,19.331428 298.526103,19.5724336 298.572615,19.8855114 L298.579676,19.981428 C298.579676,20.3072327 298.338675,20.5778553 298.025594,20.6243668 L297.929676,20.631428 L297.766,20.631 L297.761041,20.7344857 C297.737204,21.0723339 297.696994,21.3936717 297.638251,21.7067703 L297.623,21.776 L297.795752,21.819998 C298.116464,21.9078885 298.309632,22.2109099 298.271809,22.5218957 L298.253429,22.6152232 C298.188464,22.9082292 297.927895,23.111108 297.629676,23.111108 L297.58484,23.1077146 L297.469042,23.0833316 L297.289,23.038 L297.243086,23.168489 C297.155111,23.4015663 297.056285,23.6359456 296.94648,23.8734985 L296.877,24.016 L297.031728,24.1020262 C297.302367,24.2526422 297.409777,24.5809261 297.313351,24.87548 L297.273604,24.9721253 C297.170589,25.1781405 296.943903,25.310316 296.71016,25.310316 C296.625581,25.310316 296.533142,25.2898043 296.457677,25.2562911 L296.232,25.131 L296.199063,25.1828735 C296.038699,25.4228241 295.882056,25.6378169 295.721204,25.835932 L295.565,26.02 L295.613299,26.0624755 C296.959819,27.2057913 298.640042,27.8733142 300.432486,27.9439547 L300.74992,27.9502 C302.645984,27.9502 304.442494,27.2829998 305.856345,26.1052907 L305.916,26.053 L305.872531,26.0024071 C305.667042,25.7583341 305.477824,25.5083934 305.297015,25.2429172 L305.248,25.168 L305.107571,25.2461874 C305.03367,25.2951349 304.943901,25.3278835 304.85606,25.3411986 L304.76952,25.347916 C304.545761,25.347916 304.348427,25.2279733 304.22195,25.0370144 C304.035586,24.7586982 304.107433,24.3782486 304.365289,24.1899459 L304.448154,24.1395138 L304.596,24.057 L304.49592,23.8486419 C304.42811,23.7001899 304.363373,23.5453421 304.300075,23.3811472 L304.187,23.072 L304.063548,23.101124 L304.003205,23.1270016 L303.941622,23.1426805 L303.875736,23.1487032 C303.86862,23.1488901 303.861173,23.1488172 303.850004,23.148708 C303.551793,23.148708 303.291222,22.9458297 303.229153,22.6645614 C303.141383,22.3431265 303.29706,22.0189294 303.595617,21.8890948 L303.68937,21.8561724 L303.861,21.813 L303.849339,21.7460867 C303.798506,21.4550643 303.76062,21.1889229 303.735058,20.9325666 L303.713,20.669 L303.550004,20.669028 C303.224201,20.669028 302.953577,20.4280224 302.907065,20.1149446 L302.900004,20.019028 C302.900004,19.6932233 303.141005,19.4226007 303.454086,19.3760892 L303.550004,19.369028 L303.713,19.369 L303.718639,19.2659703 C303.742476,18.9281221 303.782686,18.6067843 303.841429,18.2936857 L303.856,18.223 L303.683928,18.180458 C303.363216,18.0925675 303.170048,17.7895461 303.210097,17.4695743 L303.229214,17.3732724 C303.317105,17.0525598 303.620126,16.8593918 303.936009,16.8983699 L304.030958,16.9171324 L304.21,16.962 L304.256914,16.831975 C304.344889,16.5988977 304.443715,16.3645184 304.55352,16.1269655 L304.622,15.983 L304.468272,15.8984378 C304.197554,15.7477779 304.087018,15.3988549 304.189447,15.1116637 L304.23155,15.0185763 C304.382166,14.7479373 304.71045,14.640527 305.011973,14.7406283 L305.11121,14.7817418 L305.267,14.868 L305.300937,14.8175905 C305.461301,14.5776399 305.617944,14.3626471 305.778796,14.164532 L305.934,13.979 L305.886704,13.9379976 C304.540177,12.7947154 302.859811,12.1271545 301.067455,12.0565097 L300.75004,12.050264 Z M306.851,14.924 L306.821578,14.9596156 C306.683373,15.1281918 306.555969,15.2967958 306.436041,15.4701709 L306.404,15.519 L306.511392,15.5824402 C306.782031,15.7330562 306.889441,16.0613401 306.793015,16.355894 L306.753268,16.4525393 C306.650253,16.6585545 306.423567,16.79073 306.189824,16.79073 C306.105245,16.79073 306.012806,16.7702183 305.935051,16.7353953 L305.863025,16.6960315 L305.753,16.632 L305.66844,16.8183453 L305.572429,17.0457552 L305.477,17.288 L305.59574,17.319144 C305.916452,17.4070345 306.10962,17.7100559 306.071797,18.0210417 L306.053417,18.1143692 C305.988452,18.4073752 305.727883,18.610254 305.429664,18.610254 C305.39903,18.610254 305.368742,18.6049547 305.345645,18.5990049 L305.294181,18.5861713 L305.265991,18.5816974 L305.142,18.549 L305.12919,18.6144206 C305.090793,18.8298986 305.06173,19.0505414 305.042192,19.2740357 L305.037,19.35 L305.170296,19.350102 C305.496099,19.350102 305.766723,19.5911076 305.813235,19.9041854 L305.820296,20.000102 C305.820296,20.3259067 305.579295,20.5965293 305.266214,20.6430408 L305.170296,20.650102 L305.036,20.65 L305.041724,20.7245644 C305.061065,20.9471694 305.090175,21.1678231 305.128776,21.3840727 L305.144,21.462 L305.243511,21.4401853 C305.564945,21.3524151 305.889143,21.5080919 306.017952,21.8027276 L306.050535,21.8951826 C306.138305,22.2166175 305.982628,22.5408146 305.686355,22.6700631 L305.593357,22.7027914 L305.477,22.732 C305.540665,22.9000971 305.603482,23.0554332 305.668452,23.2029306 L305.754,23.389 L305.850746,23.3329863 C306.129062,23.1466223 306.509511,23.2184689 306.689675,23.4630054 L306.737414,23.5414616 C306.923778,23.8197778 306.851931,24.2002274 306.598154,24.3861975 L306.401,24.503 L306.532328,24.689664 L306.687791,24.8950594 L306.85,25.095 L306.875045,25.0660697 C307.975944,23.7269937 308.621114,22.0752742 308.693207,20.3286759 L308.69998,20.00013 C308.69998,18.1304031 308.043079,16.3548897 306.875738,14.9519664 L306.851,14.924 Z M294.679224,14.9401724 L294.649,14.905 L294.641652,14.9140734 C293.459664,16.3430057 292.80008,18.1258867 292.80008,20.000136 C292.80008,21.8659209 293.454563,23.6422493 294.606843,25.0307499 L294.628,25.055 L294.658082,25.0202504 C294.796287,24.8516742 294.923691,24.6830702 295.043619,24.5096951 L295.075,24.46 L294.968268,24.3974258 C294.697629,24.2468098 294.590219,23.9185259 294.690402,23.6168553 L294.731546,23.5175643 C294.882162,23.2469253 295.210446,23.139515 295.515928,23.2418797 L295.616635,23.2838345 L295.725,23.347 L295.81122,23.1615207 L295.907231,22.9341108 L296.002,22.691 L295.88392,22.660722 C295.563208,22.5728315 295.37004,22.2698101 295.410089,21.9498383 L295.429206,21.8535364 C295.517097,21.5328238 295.820118,21.3396558 296.138285,21.3792201 L296.233989,21.3981766 L296.357,21.431 L296.37079,21.3654534 C296.409187,21.1499754 296.43825,20.9293326 296.457788,20.7058383 L296.462,20.629 L296.329684,20.629772 C296.003879,20.629772 295.733257,20.3887713 295.686745,20.0756899 L295.679684,19.979772 C295.679684,19.6539673 295.920685,19.3833447 296.233766,19.3368332 L296.329684,19.329772 L296.463,19.329 L296.458256,19.2553096 C296.438915,19.0327046 296.409805,18.8120509 296.371204,18.5958013 L296.357,18.528 L296.283,18.548 L296.252412,18.566429 C296.221111,18.5802638 296.187521,18.5860944 296.144001,18.5884443 L296.070316,18.589924 C295.772105,18.589924 295.511534,18.3870457 295.449465,18.1057774 C295.361695,17.7843425 295.517372,17.4601454 295.813645,17.3308969 L295.906643,17.2981686 L296.022,17.268 C295.959335,17.1008629 295.896518,16.9455268 295.831548,16.7980294 L295.745,16.611 L295.648207,16.6686714 C295.574306,16.7176189 295.484537,16.7503675 295.396696,16.7636826 L295.310156,16.7704 C295.086397,16.7704 294.889063,16.6504573 294.762586,16.4594984 C294.576222,16.1811822 294.648069,15.8007326 294.901846,15.6147625 L295.096,15.498 L295.064529,15.4503558 C294.944983,15.2774004 294.817731,15.1090411 294.679224,14.9401724 Z" id="Shape-Copy"></path>
        </g>
    </g>
</svg>