<?xml version="1.0" encoding="UTF-8"?>
<svg width="20px" height="21px" viewBox="0 0 20 21" version="1.1" xmlns="http://www.w3.org/2000/svg" xmlns:xlink="http://www.w3.org/1999/xlink">
    <title>Shape</title>
    <g id="Phase-3---Coach" stroke="none" stroke-width="1" fill="none" fill-rule="evenodd">
        <g id="PitchAI---New-Pitch---Pre-record" transform="translate(-686.000000, -292.000000)" fill="#FFFFFF">
            <g id="Group-5" transform="translate(667.000000, 292.000000)">
                <path d="M21,4.5 L19,4.5 L19,18.5 C19,19.6 19.9,20.5 21,20.5 L35,20.5 L35,18.5 L21,18.5 L21,4.5 L21,4.5 Z M37,0.5 L25,0.5 C23.9,0.5 23,1.4 23,2.5 L23,14.5 C23,15.6 23.9,16.5 25,16.5 L37,16.5 C38.1,16.5 39,15.6 39,14.5 L39,2.5 C39,1.4 38.1,0.5 37,0.5 L37,0.5 Z M29,13 L29,4 L35,8.5 L29,13 L29,13 Z" id="Shape"></path>
            </g>
        </g>
    </g>
</svg>