<?xml version="1.0" encoding="UTF-8"?>
<svg width="18px" height="17px" viewBox="0 0 18 17" version="1.1" xmlns="http://www.w3.org/2000/svg" xmlns:xlink="http://www.w3.org/1999/xlink">
    <title>Path</title>
    <g id="Phase-3---Coach" stroke="none" stroke-width="1" fill="none" fill-rule="evenodd">
        <g id="PitchAI---Register-With" transform="translate(-56.000000, -258.000000)" fill="#3B5998">
            <g id="Group-4" transform="translate(32.000000, 244.000000)">
                <g id="svgexport-32" transform="translate(24.000000, 14.000000)">
                    <path d="M16.3,0 L0.7,0 C0.313400675,0 0,0.313400675 0,0.7 L0,16.3 C0,16.68 0.32,17.0000715 0.7,17.0000715 L9.03,17.0000715 L9.03,10.62 L6.91,10.62 L6.91,7.97 L9.03,7.97 L9.03,5.84 C9.03,3.64 10.43,2.57 12.38,2.57 C13.32,2.57 14.13,2.64 14.36,2.67 L14.36,4.97 L13,4.97 C11.94,4.97 11.69,5.47 11.69,6.21 L11.69,7.97 L14.34,7.97 L13.81,10.62 L11.7,10.62 L11.74,17.0000715 L16.3,17.0000715 C16.4873781,17.0026771 16.6680057,16.9301108 16.8014519,16.7985441 C16.9348982,16.6669774 17.01,16.4873972 17.01,16.3 L17.01,0.7 C17.01,0.313400675 16.6965993,0 16.31,0" id="Path"></path>
                </g>
            </g>
        </g>
    </g>
</svg>