<?xml version="1.0" encoding="UTF-8"?>
<svg width="24px" height="24px" viewBox="0 0 24 24" version="1.1" xmlns="http://www.w3.org/2000/svg" xmlns:xlink="http://www.w3.org/1999/xlink">
    <title>icon-settings</title>
    <g id="Symbols" stroke="none" stroke-width="1" fill="none" fill-rule="evenodd">
        <g id="Nav-Bar/Settings-Only" transform="translate(-32.000000, -17.000000)" fill="#FFFFFF" fill-rule="nonzero">
            <path d="M45.381495,17.13186 C45.9851873,17.13186 46.4838229,17.6037105 46.5240005,18.1971171 L46.5240005,18.1971171 L46.9608005,20.5625149 C46.9649213,20.5872402 46.9680121,20.6129967 46.9700724,20.6377219 C47.3842174,20.792245 47.7860196,20.976652 48.1713119,21.188878 L48.1713119,21.188878 L50.0143801,19.9031637 C50.4573779,19.5055048 51.1445427,19.5157905 51.5761998,19.9381905 L51.5761998,19.9381905 L53.3285954,21.6792718 C53.542868,21.8894433 53.664434,22.1758345 53.6664943,22.4818213 C53.6675229,22.7661553 53.5665726,23.0329826 53.3801031,23.2431487 L53.3801031,23.2431487 L52.0212548,25.2221993 C52.0068337,25.2438362 51.9903494,25.2644398 51.9728354,25.2840138 C52.1572398,25.6857896 52.3107502,26.0999347 52.4333453,26.5213061 L52.4333453,26.5213061 L54.6441937,26.9138248 C54.9233849,26.9282512 55.1850587,27.0436331 55.3859519,27.2424665 C55.6033181,27.4577808 55.7228223,27.744172 55.7228223,28.0501589 L55.7228223,28.0501589 L55.7342723,30.5164856 C55.7372982,30.8162746 55.620885,31.1037182 55.4065993,31.3200636 C55.2077685,31.5219775 54.9460894,31.6394219 54.6648411,31.6559054 L54.6648411,31.6559054 L52.3046125,32.0958175 C52.2798872,32.0999384 52.2541307,32.1030291 52.2294055,32.1050897 C52.074856,32.5192347 51.8894204,32.9220655 51.6771945,33.3063292 L51.6771945,33.3063292 L52.9649659,35.1483688 C53.1535057,35.3575116 53.2554959,35.6243336 53.2565263,35.9076391 C53.2565263,36.2125974 53.1390872,36.4979574 52.9237703,36.7132743 L52.9237703,36.7132743 L51.1888868,38.4636127 C50.9704868,38.6820075 50.6840692,38.8004831 50.3791373,38.8004831 L50.3791373,38.8004831 C50.0958287,38.8004831 49.8310533,38.6985015 49.6239781,38.5140919 L49.6239781,38.5140919 L47.6449276,37.1562721 C47.6243219,37.1418484 47.6037185,37.126395 47.5841443,37.1088813 C47.1916256,37.2891714 46.776452,37.4426765 46.3437663,37.5673341 L46.3437663,37.5673341 L45.9512476,39.7812681 C45.9193091,40.3767319 45.4248036,40.8547473 44.8200564,40.8588681 L44.8200564,40.8588681 L43.8701838,40.8619586 L42.3516432,40.86814 C41.7458674,40.86814 41.2472529,40.3952609 41.2111948,39.7987686 L41.2111948,39.7987686 L40.7733399,37.4354543 C40.7692187,37.4107291 40.7661283,37.3849744 40.7640677,37.3592187 C40.3509512,37.2077814 39.949149,37.0233743 39.5628282,36.8101198 L39.5628282,36.8101198 L37.7207886,38.0958341 C37.5126743,38.2843713 37.2468809,38.387393 36.9635754,38.3884231 L36.9635754,38.3884231 C36.6565518,38.3884231 36.3722204,38.2730359 36.1569035,38.0608099 L36.1569035,38.0608099 L34.4055365,36.3207572 C34.1902327,36.1095572 34.0686677,35.8221374 34.0676376,35.515122 C34.0655804,35.2318165 34.1665334,34.9660126 34.3519716,34.7579088 L34.3519716,34.7579088 L35.7129035,32.7778297 C35.7283584,32.7572266 35.7438107,32.7366217 35.7602943,32.7180776 C35.5748613,32.3111326 35.4203198,31.8959589 35.2997844,31.4787282 L35.2997844,31.4787282 L33.0858503,31.0872381 C32.4914151,31.0532425 32.0144299,30.558737 32.0092789,29.9560469 L32.0092789,29.9560469 L32,27.4855765 C31.9989781,27.1806183 32.1164172,26.8932011 32.3317342,26.6778842 C32.5305649,26.4780275 32.7901869,26.3616117 33.0704067,26.3451282 L33.0704067,26.3451282 L35.4285781,25.9062447 C35.4533034,25.9021238 35.4790583,25.8990333 35.5048137,25.8969727 C35.6583082,25.4828277 35.8427153,25.0810255 36.0559698,24.6947046 L36.0559698,24.6947046 L34.7702555,22.8536936 C34.5827469,22.6445508 34.4797252,22.3777288 34.4786951,22.0944233 C34.4776665,21.7894651 34.5961368,21.5041051 34.8104225,21.2887881 L34.8104225,21.2887881 L36.5473632,19.5374211 C36.9728489,19.1109015 37.6589852,19.0923609 38.1071258,19.483851 L38.1071258,19.483851 L40.0892621,20.8437279 C40.1108964,20.858149 40.1315,20.8746336 40.151074,20.8921473 C40.5518212,20.7098 40.9659663,20.5562897 41.3883663,20.4336945 L41.3883663,20.4336945 L41.7788278,18.2187319 C41.8128234,17.6263538 42.3063003,17.1483435 42.9079355,17.1411319 L42.9079355,17.1411319 L43.8639794,17.1380414 L45.3794344,17.13186 Z M45.2878285,18.3825316 L43.8702461,18.3887128 L43.8681855,18.3887128 L43.0172141,18.3907734 L43.0172141,18.3928337 L42.5999833,20.75926 C42.5917416,20.9117524 42.5546523,21.0621532 42.4918092,21.1991721 C42.4124774,21.3732803 42.2569073,21.499995 42.0714664,21.545326 C41.5450224,21.6730798 41.027862,21.8564477 40.5364422,22.0923677 C40.4818409,22.1181216 40.4241486,22.1366657 40.3643965,22.1459378 C39.9955877,22.2036433 39.6195525,22.0933989 39.3444756,21.848206 L39.3444756,21.848206 L37.3643965,20.4903862 C37.3643965,20.489356 37.3633663,20.489356 37.3633663,20.489356 L35.767551,22.0985692 L35.767551,22.0985692 L35.7696113,22.1006298 L37.142886,24.0673111 C37.2407559,24.1744672 37.3180227,24.3001533 37.3736552,24.439232 C37.4457713,24.6226078 37.4282565,24.8286597 37.3252359,24.9965858 C37.0409018,25.4591529 36.8060157,25.9536584 36.6267568,26.4677331 C36.6061537,26.5254254 36.5783374,26.5789955 36.5422794,26.6284461 C36.3238794,26.9292663 35.9808113,27.1177971 35.6130311,27.1414922 L35.6130311,27.1414922 L33.2528025,27.5814043 C33.2517723,27.5814043 33.249712,27.5824345 33.2486819,27.5824345 L33.2486819,27.5824345 L33.2569236,29.8489312 L33.2589839,29.8489312 L35.6212696,30.2682191 C35.7675642,30.2764608 35.9138428,30.3125189 36.0549839,30.3753619 C36.2332011,30.4546938 36.3630068,30.6112872 36.4083378,30.8008476 C36.531951,31.3159509 36.7153373,31.8310806 36.9553795,32.3327861 C36.9811334,32.3863589 36.9996777,32.4440512 37.0089496,32.5038033 C37.0666288,32.8695263 36.957434,33.2445329 36.7153321,33.521667 L36.7153321,33.521667 L35.3523431,35.5048318 L36.9594991,37.1027044 C36.9605292,37.1027044 36.9615594,37.1016742 36.9625898,37.100644 L36.9625898,37.100644 L38.9313283,35.7263407 C39.0384606,35.6295021 39.162087,35.5522353 39.3001371,35.4966027 C39.4845415,35.4224269 39.6936791,35.4399416 39.8626338,35.5439935 C40.3252008,35.8293561 40.8197063,36.063219 41.3306953,36.2393869 C41.3914786,36.25999 41.4491709,36.2908972 41.5006812,36.329015 C41.8015147,36.5535865 41.9828341,36.888426 42.0054988,37.2551777 L42.0054988,37.2551777 L42.4433538,39.6174634 L42.4433538,39.619524 L43.8619648,39.6133428 L43.8629949,39.6133428 L44.7108543,39.610252 C44.7118844,39.6092216 44.7118844,39.6081915 44.7118844,39.6071613 L44.7118844,39.6071613 L45.1311723,37.2428185 C45.1383829,37.1058075 45.1703213,36.9698145 45.2269824,36.8286734 C45.3021736,36.6411648 45.4639257,36.5020862 45.6596682,36.4546954 C46.2036242,36.3228273 46.7187275,36.1394488 47.1916066,35.9097108 C47.2482703,35.8818945 47.3080224,35.8633504 47.3708655,35.8540782 C47.7407292,35.7984563 48.1074809,35.9045626 48.3856435,36.1487244 L48.3856435,36.1487244 L50.3677798,37.5096563 C50.36881,37.5096563 50.36881,37.5106864 50.3698401,37.5106864 L50.3698401,37.5106864 L51.9646269,35.9014732 L51.9646269,35.9014732 L51.9635968,35.9004428 L50.5851528,33.9285923 C50.4903739,33.8204287 50.4120759,33.6937114 50.3585058,33.5597835 C50.2853612,33.3764076 50.3028759,33.1693272 50.4058965,33.0014011 C50.6881735,32.5419197 50.9230543,32.0474142 51.1064328,31.5302538 C51.1270385,31.4735927 51.1548548,31.42002 51.1898816,31.3716006 C51.4082816,31.0707804 51.7513497,30.8822496 52.1170728,30.8585545 L52.1170728,30.8585545 L54.4805079,30.4185983 L54.4805079,30.4185983 L54.481538,30.4185983 L54.4722661,28.1531566 L54.4702056,28.1531566 L52.1068913,27.7328137 C51.9523418,27.7256032 51.8040007,27.6895451 51.6659506,27.6256709 C51.4908139,27.5453104 51.3640992,27.3897403 51.3187682,27.2032709 C51.1930979,26.678884 51.0086776,26.1637807 50.7717264,25.672361 C50.7439102,25.6136375 50.7253658,25.5518256 50.7160939,25.4879513 C50.6635576,25.1160568 50.7717212,24.7513623 51.0148543,24.4783425 L51.0148543,24.4783425 L52.3747313,22.4982634 C52.3757614,22.4982634 52.3757614,22.4972332 52.3757614,22.4972332 L50.7686054,20.9003893 C50.7675752,20.9003893 50.7665448,20.9014197 50.7655147,20.9024498 L50.7655147,20.9024498 L48.7957212,22.2767531 C48.6906276,22.3705035 48.5711234,22.4467391 48.4392553,22.5023716 C48.2527674,22.5806696 48.0405494,22.5652147 47.8685037,22.459103 C47.4079938,22.1757975 46.9124597,21.9409114 46.3973564,21.7606239 C46.3417239,21.7410494 46.2881511,21.7132331 46.2397318,21.6782063 C45.937883,21.4618635 45.7483236,21.1177668 45.7246285,20.7479294 L45.7246285,20.7479294 L45.2878285,18.3825316 Z M43.8672754,24.8315479 C44.9758116,24.8315479 46.0183874,25.2601193 46.8023962,26.0389589 C48.4332458,27.6606731 48.4435315,30.3052094 46.8250612,31.9339918 C46.0399975,32.7293149 44.9891667,33.1681984 43.867259,33.1681984 C42.7628107,33.1681984 41.7202348,32.739627 40.9310832,31.961816 C39.3002552,30.3424753 39.2889146,27.69786 40.9053278,26.0659918 C41.6953761,25.2696402 42.7472354,24.8317852 43.867086,24.8317852 Z M43.8670844,26.0826863 C43.0830756,26.0826863 42.3464866,26.3896753 41.7922185,26.9470292 C40.6610289,28.0895347 40.6682552,29.9417808 41.8097322,31.0750292 C42.3619431,31.6200138 43.0933893,31.9208314 43.867086,31.9208314 C44.6521234,31.9208314 45.3877102,31.6138424 45.9368091,31.0564885 C47.0710844,29.9140094 47.063858,28.0617369 45.9213525,26.92746 C45.3732558,26.3824753 44.6438668,26.0826863 43.8670844,26.0826863 Z" id="icon-settings"></path>
        </g>
    </g>
</svg>