<?xml version="1.0" encoding="UTF-8"?>
<svg width="22px" height="19px" viewBox="0 0 22 19" version="1.1" xmlns="http://www.w3.org/2000/svg" xmlns:xlink="http://www.w3.org/1999/xlink">
    <title>Shape Copy</title>
    <g id="Phase-3---Coach" stroke="none" stroke-width="1" fill="none" fill-rule="evenodd" opacity="0.65">
        <g id="PitchAI---Register---Password" transform="translate(-290.000000, -103.000000)" fill="#FFFFFF">
            <path d="M301.01,107 C303.77,107 306.01,109.24 306.01,112 C306.01,112.65 305.88,113.26 305.65,113.83 L308.57,116.75 C310.08,115.49 311.27,113.86 312,112 C310.27,107.61 306,104.5 301,104.5 C299.6,104.5 298.26,104.75 297.02,105.2 L299.18,107.36 C299.75,107.13 300.36,107 301.01,107 L301.01,107 Z M291.01,104.27 L293.29,106.55 L293.75,107.01 C292.09,108.3 290.79,110.02 290.01,112 C291.74,116.39 296.01,119.5 301.01,119.5 C302.56,119.5 304.04,119.2 305.39,118.66 L305.81,119.08 L308.74,122 L310.01,120.73 L292.28,103 L291.01,104.27 L291.01,104.27 Z M296.54,109.8 L298.09,111.35 C298.04,111.56 298.01,111.78 298.01,112 C298.01,113.66 299.35,115 301.01,115 C301.23,115 301.45,114.97 301.66,114.92 L303.21,116.47 C302.54,116.8 301.8,117 301.01,117 C298.25,117 296.01,114.76 296.01,112 C296.01,111.21 296.21,110.47 296.54,109.8 L296.54,109.8 Z M300.85,109.02 L304,112.17 L304.02,112.01 C304.02,110.35 302.68,109.01 301.02,109.01 L300.85,109.02 L300.85,109.02 Z" id="Shape-Copy"></path>
        </g>
    </g>
</svg>