<?xml version="1.0" encoding="UTF-8"?>
<svg width="16px" height="4px" viewBox="0 0 16 4" version="1.1" xmlns="http://www.w3.org/2000/svg" xmlns:xlink="http://www.w3.org/1999/xlink">
    <title>Shape</title>
    <g id="Phase-4---Player" stroke="none" stroke-width="1" fill="none" fill-rule="evenodd">
        <g id="PitchAI---Report-Angles-+-Add-Player-Info-Copy" transform="translate(-304.000000, -35.000000)" fill="#FFFFFF">
            <g id="Group-11">
                <g id="Group-20" transform="translate(312.000000, 37.000000) rotate(-180.000000) translate(-312.000000, -37.000000) translate(296.000000, 21.000000)">
                    <path d="M10,14 C8.9,14 8,14.9 8,16 C8,17.1 8.9,18 10,18 C11.1,18 12,17.1 12,16 C12,14.9 11.1,14 10,14 L10,14 Z M22,14 C20.9,14 20,14.9 20,16 C20,17.1 20.9,18 22,18 C23.1,18 24,17.1 24,16 C24,14.9 23.1,14 22,14 L22,14 Z M16,14 C14.9,14 14,14.9 14,16 C14,17.1 14.9,18 16,18 C17.1,18 18,17.1 18,16 C18,14.9 17.1,14 16,14 L16,14 Z" id="Shape"></path>
                </g>
            </g>
        </g>
    </g>
</svg>