<?xml version="1.0" encoding="UTF-8"?>
<svg width="22px" height="16px" viewBox="0 0 22 16" version="1.1" xmlns="http://www.w3.org/2000/svg" xmlns:xlink="http://www.w3.org/1999/xlink">
    <title>Shape</title>
    <g id="Phase-3---Coach" stroke="none" stroke-width="1" fill="none" fill-rule="evenodd">
        <g id="PitchAI---Login---Email" transform="translate(-227.000000, -182.000000)" fill="#BBBDC1">
            <path d="M238,182.5 C233,182.5 228.73,185.61 227,190 C228.73,194.39 233,197.5 238,197.5 C243,197.5 247.27,194.39 249,190 C247.27,185.61 243,182.5 238,182.5 L238,182.5 Z M238,195 C235.24,195 233,192.76 233,190 C233,187.24 235.24,185 238,185 C240.76,185 243,187.24 243,190 C243,192.76 240.76,195 238,195 L238,195 Z M238,187 C236.34,187 235,188.34 235,190 C235,191.66 236.34,193 238,193 C239.66,193 241,191.66 241,190 C241,188.34 239.66,187 238,187 L238,187 Z" id="Shape"></path>
        </g>
    </g>
</svg>