<?xml version="1.0" encoding="UTF-8"?>
<svg width="20px" height="11px" viewBox="0 0 20 11" version="1.1" xmlns="http://www.w3.org/2000/svg" xmlns:xlink="http://www.w3.org/1999/xlink">
    <title>Shape Copy 9</title>
    <g id="Phase-4---Player" stroke="none" stroke-width="1" fill="none" fill-rule="evenodd">
        <g id="PitchAI---Report-Angles-+-Add-Player-Info-Copy-2" transform="translate(-32.000000, -581.000000)" fill="#FFFFFF">
            <g id="Group-22" transform="translate(-0.500000, 509.000000)">
                <path d="M34.4,77.5 C34.4,75.79 35.79,74.4 37.5,74.4 L41.5,74.4 L41.5,72.5 L37.5,72.5 C34.74,72.5 32.5,74.74 32.5,77.5 C32.5,80.26 34.74,82.5 37.5,82.5 L41.5,82.5 L41.5,80.6 L37.5,80.6 C35.79,80.6 34.4,79.21 34.4,77.5 L34.4,77.5 Z M38.5,78.5 L46.5,78.5 L46.5,76.5 L38.5,76.5 L38.5,78.5 L38.5,78.5 Z M47.5,72.5 L43.5,72.5 L43.5,74.4 L47.5,74.4 C49.21,74.4 50.6,75.79 50.6,77.5 C50.6,79.21 49.21,80.6 47.5,80.6 L43.5,80.6 L43.5,82.5 L47.5,82.5 C50.26,82.5 52.5,80.26 52.5,77.5 C52.5,74.74 50.26,72.5 47.5,72.5 L47.5,72.5 Z" id="Shape-Copy-9"></path>
            </g>
        </g>
    </g>
</svg>