<?xml version="1.0" encoding="UTF-8"?>
<svg width="31px" height="30px" viewBox="0 0 31 30" version="1.1" xmlns="http://www.w3.org/2000/svg" xmlns:xlink="http://www.w3.org/1999/xlink">
    <!-- Generator: Sketch 48.2 (47327) - http://www.bohemiancoding.com/sketch -->
    
    <desc>Created with Sketch.</desc>
    <defs></defs>
    <g id="199.-Account-Menu-Expanded---Large" stroke="none" stroke-width="1" fill="none" fill-rule="evenodd" transform="translate(-1000.000000, -261.000000)">
        <g id="settings-logout" transform="translate(1000.000000, 261.000000)">
            <circle id="Oval-2-Copy-2" fill="{{themeColour}}" cx="15.5" cy="15" r="15"></circle>
            <g id="logout" transform="translate(9.000000, 8.000000)" fill="#FFFFFF" fill-rule="nonzero">
                <path d="M10.87296,10.12046 L13.94092,7.43638 C14.18319,7.224196 14.207788,6.85615 13.9956068,6.613334 C13.9786542,6.5936472 13.9600594,6.5755998 13.94092,6.5586472 L10.85434,3.8581872 C10.622472,3.6552992 10.273018,3.6678712 10.055906,3.886078 L10.0531717,3.88935932 C9.84919166,4.09499132 9.85028366,4.42749132 10.055906,4.63147132 C10.0624685,4.63748698 10.0684842,4.64404948 10.0750468,4.64951872 L12.0421868,6.41421872 L4.2245868,6.41421872 C3.9024748,6.41421872 3.6416128,6.67508072 3.6416128,6.99773872 C3.6416128,7.31985072 3.9024748,7.58071272 4.2245868,7.58071272 L12.0421868,7.58071272 L10.1019268,9.26183272 C9.8656768,9.46635872 9.8399728,9.82347072 10.0445044,10.0591747 C10.0472387,10.062456 10.0505199,10.0657374 10.0532544,10.0690185 L10.0570826,10.0733935 C10.2709046,10.3090975 10.6340366,10.3298735 10.8730166,10.1204251 L10.87296,10.12046 Z M8.89322,2.91648 C8.571108,2.91648 8.3097,2.655618 8.3097,2.33296 L8.3097,1.16648 L1.89042,1.16648 C1.568308,1.16648 1.3069,1.427888 1.3069,1.75 L1.3069,12.25 C1.3069,12.572112 1.568308,12.83352 1.89042,12.83352 L8.3097,12.83352 L8.3097,11.66704 C8.3097,11.344382 8.571108,11.08352 8.89322,11.08352 C9.215878,11.08352 9.47674,11.344382 9.47674,11.66704 L9.47674,12.83352 C9.47345882,13.416494 8.889944,14 8.309714,14 L1.306914,14 C0.723394,14 0.139888,13.41648 0.139888,12.83352 L0.139888,1.16648 C0.139888,0.583506 0.723408,7.10542736e-15 1.306914,7.10542736e-15 L8.306354,7.10542736e-15 C8.889874,7.10542736e-15 9.47338,0.595546 9.47338,1.16648 L9.4755675,2.33296 C9.47611434,2.654526 9.2163435,2.915934 8.8947915,2.91648 L8.89315098,2.91648 L8.89322,2.91648 Z" id="Shape"></path>
            </g>
        </g>
    </g>
</svg>